# xmcd
#
# Track frame offsets:
#	150
#	16237
#	32582
#	46972
#	67662
#	89170
#	110080
#	124457
#	149857
#	171360
#	186977
#	212042
#	230252
#
# Disc length: 3258 seconds
#
# Revision: 0
# Processed by: cddbd v1.4PL0 Copyright (c) Steve Scherf et al.
# Submitted via: dBpowerAMP V4.0
#
DISCID=c20cb80d
DTITLE=Julie Tan - SToRAGE
DYEAR=2001
DGENRE=
TTITLE0=LA 66
TTITLE1=In My Eyes
TTITLE2=I Wanna Be A Door
TTITLE3=Stay Another Day
TTITLE4=Last Time
TTITLE5=Daydreaming
TTITLE6=He Drives Me Wild
TTITLE7=Changed My Ways
TTITLE8=Finer Shade of Grey
TTITLE9=End This Way
TTITLE10=Kind of Night
TTITLE11=Fall Apart
TTITLE12=Shoot-out at the Mini-mall
EXTD=
EXTT0=
EXTT1=
EXTT2=
EXTT3=
EXTT4=
EXTT5=
EXTT6=
EXTT7=
EXTT8=
EXTT9=
EXTT10=
EXTT11=
EXTT12=
PLAYORDER=
